<?xml version="1.0" encoding="iso-8859-1"?>
<!-- Generator: Adobe Illustrator 19.1.1, SVG Export Plug-In . SVG Version: 6.00 Build 0)  -->
<!DOCTYPE svg PUBLIC "-//W3C//DTD SVG 1.0//EN" "http://www.w3.org/TR/2001/REC-SVG-20010904/DTD/svg10.dtd">
<svg version="1.0" id="Layer_1" xmlns="http://www.w3.org/2000/svg" xmlns:xlink="http://www.w3.org/1999/xlink" x="0px" y="0px"
	 width="47px" height="35px" viewBox="-488 367 47 35" style="enable-background:new -488 367 47 35;" xml:space="preserve">
<style type="text/css">
	.st0{opacity:0.4;fill:#333333;enable-background:new    ;}
	.st1{fill:#666666;}
</style>
<g>
	<g>
		<path class="st0" d="M-453,384.2c-9.5,0-20.4,3.1-24.1,6.8c-2.9,3-0.9,5.5,4.9,6.5c0.8,1.3,1.2,2.8,1.2,2.8l0.4,1.7l3.8-1.7
			c0,0,3.4-1.5,6.9-2.8c7.6-1,14.5-3.5,17.4-6.4C-438.8,387.3-443.4,384.2-453,384.2z"/>
		<g>
			<path class="st1" d="M-453.7,382.3c0-7.1-7.6-12.9-17.1-12.9s-17,5.7-17,12.9c0,5.7,5,10.5,11.8,12.2c2.8,3.3,5.4,7.5,5.4,7.5
				s2.6-4.2,5.5-7.6C-458.5,392.7-453.7,387.9-453.7,382.3z"/>
		</g>
	</g>
</g>
</svg>
