<?xml version="1.0" encoding="iso-8859-1"?>
<!-- Generator: Adobe Illustrator 19.1.1, SVG Export Plug-In . SVG Version: 6.00 Build 0)  -->
<!DOCTYPE svg PUBLIC "-//W3C//DTD SVG 1.0//EN" "http://www.w3.org/TR/2001/REC-SVG-20010904/DTD/svg10.dtd">
<svg version="1.0" id="Layer_1" xmlns="http://www.w3.org/2000/svg" xmlns:xlink="http://www.w3.org/1999/xlink" x="0px" y="0px"
	 width="47px" height="35px" viewBox="-488 367 47 35" style="enable-background:new -488 367 47 35;" xml:space="preserve">
<style type="text/css">
	.st0{opacity:0.4;fill:#333333;enable-background:new    ;}
	.st1{fill:#FF3300;}
	.st2{fill:#FFFFFF;}
</style>
<g>
	<path class="st0" d="M-453,384.2c-9.5,0-20.4,3.1-24.1,6.8c-2.9,2.9-0.9,5.4,4.9,6.4c0.8,1.3,1.2,2.8,1.2,2.8l0.4,1.7l3.8-1.7
		c0,0,3.4-1.5,6.9-2.8c7.6-1,14.5-3.5,17.4-6.4C-438.8,387.3-443.5,384.2-453,384.2z"/>
	<g>
		<path class="st1" d="M-453.6,382.3c0-7.1-7.6-12.9-17.1-12.9c-9.4,0-17,5.7-17,12.9c0,5.7,4.9,10.6,11.8,12.3
			c2.8,3.3,5.4,7.5,5.4,7.5s2.6-4.2,5.5-7.6C-458.4,392.7-453.6,387.9-453.6,382.3z"/>
	</g>
	<path class="st2" d="M-467.8,378.7c0,0-2-2.2-1.2-5.4c0,0-8.4,3.5-8.1,10.7c0,0,0.4,3.5,3.9,5.1c0,0,2.4,1.1,2.4,2.6
		c0,0,5.5-1.9,5.8-7.1C-465,384.5-464.9,381.8-467.8,378.7z M-467.8,386.7c-0.1,1.4-1.2,2.7-2.4,3.3c0.2-0.1-0.1-0.8-0.2-0.9
		c-0.2-0.3-0.4-0.5-0.6-0.8c-0.5-0.5-1-1-1.4-1.7c-1-1.8,0.3-3.6,1.7-4.7c0.1,0.6,0.4,1.1,0.8,1.5c0.3,0.3,0.7,0.6,1.1,1
		C-468.1,385.1-467.7,385.8-467.8,386.7z"/>
</g>
</svg>
