<?xml version="1.0" encoding="iso-8859-1"?>
<!-- Generator: Adobe Illustrator 19.1.1, SVG Export Plug-In . SVG Version: 6.00 Build 0)  -->
<!DOCTYPE svg PUBLIC "-//W3C//DTD SVG 1.0//EN" "http://www.w3.org/TR/2001/REC-SVG-20010904/DTD/svg10.dtd">
<svg version="1.0" id="Layer_1" xmlns="http://www.w3.org/2000/svg" xmlns:xlink="http://www.w3.org/1999/xlink" x="0px" y="0px"
	 width="47px" height="35px" viewBox="-488 367 47 35" style="enable-background:new -488 367 47 35;" xml:space="preserve">
<style type="text/css">
	.st0{opacity:0.4;fill:#333333;enable-background:new    ;}
	.st1{fill:#244386;}
	.st2{fill:#FFFFFF;}
	.st3{fill:#244386;stroke:#FFFFFF;stroke-width:1.21;}
</style>
<g>
	<path class="st0" d="M-453,384.2c-9.5,0-20.4,3.1-24.1,6.8c-2.9,3-0.9,5.5,4.9,6.5c0.8,1.3,1.2,2.8,1.2,2.8l0.4,1.7l3.8-1.7
		c0,0,3.4-1.5,6.9-2.8c7.6-1,14.5-3.5,17.4-6.4C-438.8,387.3-443.4,384.2-453,384.2z"/>
	<g>
		<path class="st1" d="M-453.7,382.3c0-7.1-7.6-12.9-17.1-12.9c-9.3,0-17,5.7-17,12.9c0,5.7,5,10.5,11.8,12.2
			c2.8,3.3,5.4,7.5,5.4,7.5s2.6-4.2,5.5-7.6C-458.5,392.7-453.7,387.9-453.7,382.3z"/>
	</g>
	<g>
		<path class="st2" d="M-470.8,381.3L-470.8,381.3h6.4c0,0,3-0.3,5-0.8c0,0-2.9-0.7-3.9-0.6c-0.2,0-1.7-2.9-4-6.2
			c-0.4-0.5-0.7-1.6-2.5,0.6c0,0-0.5,0.5-0.9,0.5c-0.5,0-0.9-0.5-0.9-0.5c-1.7-2.2-2.1-1.2-2.5-0.6c-2.4,3.3-3.8,6.2-4,6.2
			c-0.9,0-3.9,0.6-3.9,0.6c2,0.5,5,0.8,5,0.8H-470.8z"/>
		<path class="st3" d="M-472.1,383.9c-2.4,0.1-3.8-1.6-3.8-1.6C-475,386.1-472.1,383.9-472.1,383.9z"/>
		<path class="st3" d="M-465.6,382.3c0,0-1.4,1.7-3.8,1.6C-469.4,383.9-466.6,386.1-465.6,382.3z"/>
		<path class="st2" d="M-470.7,391.9c2,0,6-1,6.3-5.3h-12.8C-477.2,386.6-476.8,391.9-470.7,391.9z"/>
	</g>
</g>
</svg>
