<?xml version="1.0" encoding="iso-8859-1"?>
<!-- Generator: Adobe Illustrator 19.1.1, SVG Export Plug-In . SVG Version: 6.00 Build 0)  -->
<!DOCTYPE svg PUBLIC "-//W3C//DTD SVG 1.0//EN" "http://www.w3.org/TR/2001/REC-SVG-20010904/DTD/svg10.dtd">
<svg version="1.0" id="Layer_1" xmlns="http://www.w3.org/2000/svg" xmlns:xlink="http://www.w3.org/1999/xlink" x="0px" y="0px"
	 width="47px" height="35px" viewBox="-488 367 47 35" style="enable-background:new -488 367 47 35;" xml:space="preserve">
<style type="text/css">
	.st0{opacity:0.4;fill:#333333;enable-background:new    ;}
	.st1{fill:#607D8B;}
	.st2{fill:#FFFFFF;}
</style>
<g>
	<g>
		<path class="st0" d="M-453,384.2c-9.5,0-20.4,3.1-24.1,6.8c-2.9,3-0.9,5.5,4.8,6.5c0.8,1.3,1.2,2.8,1.2,2.8l0.4,1.7l3.8-1.7
			c0,0,3.4-1.5,6.9-2.8c7.6-1,14.5-3.5,17.4-6.4C-438.8,387.3-443.5,384.2-453,384.2z"/>
		<g>
			<path class="st1" d="M-453.6,382.3c0-7.1-7.6-12.9-17.1-12.9c-9.4,0-17.1,5.7-17.1,12.9c0,5.7,5,10.5,11.8,12.2
				c2.8,3.3,5.4,7.5,5.4,7.5s2.6-4.2,5.5-7.6C-458.5,392.7-453.6,387.9-453.6,382.3z"/>
		</g>
	</g>
	<path class="st2" d="M-463.8,385.7c0-1.4-0.4-2.4-1.3-3.2c-0.7-0.6-1.7-1.1-3.1-1.5l-2.9-0.7c-1.1-0.2-1.8-0.5-2.2-0.7
		c-0.6-0.3-0.8-0.8-0.8-1.4c0-1.4,1-2.1,3-2.1c2.1,0,3.3,0.9,3.3,2.6h3.4c0-1.7-0.7-3.1-2-4.1c-1.2-0.9-2.7-1.4-4.5-1.4
		c-1.8,0-3.3,0.4-4.5,1.2c-1.3,0.9-2,2.3-2,4c0,1.6,0.6,2.9,1.7,3.6c0.4,0.2,0.9,0.5,1.5,0.7c0.6,0.2,1.3,0.4,2.2,0.6l1.8,0.4
		c2,0.4,3,1.1,3,2.1c0,1.5-1.2,2.2-3.5,2.2c-1.4,0-2.4-0.3-3-1c-0.3-0.4-0.5-0.9-0.6-1.7h-3.3c0,1.9,0.7,3.3,2.2,4.3
		c1.3,0.9,2.9,1.3,4.9,1.3c1.8,0,3.3-0.4,4.6-1.3C-464.5,388.9-463.8,387.5-463.8,385.7"/>
</g>
</svg>
