<?xml version="1.0" encoding="iso-8859-1"?>
<!-- Generator: Adobe Illustrator 19.1.1, SVG Export Plug-In . SVG Version: 6.00 Build 0)  -->
<!DOCTYPE svg PUBLIC "-//W3C//DTD SVG 1.0//EN" "http://www.w3.org/TR/2001/REC-SVG-20010904/DTD/svg10.dtd">
<svg version="1.0" id="Layer_1" xmlns="http://www.w3.org/2000/svg" xmlns:xlink="http://www.w3.org/1999/xlink" x="0px" y="0px"
	 width="47px" height="35px" viewBox="-488 367 47 35" style="enable-background:new -488 367 47 35;" xml:space="preserve">
<style type="text/css">
	.st0{opacity:0.4;fill:#333333;enable-background:new    ;}
	.st1{fill:#386319;}
	.st2{fill:#FFFFFF;}
</style>
<g>
	<path class="st0" d="M-453,384.2c-9.5,0-20.4,3.1-24.1,6.8c-2.9,3-1,5.5,4.8,6.5c0.8,1.3,1.2,2.8,1.2,2.8l0.4,1.7l3.8-1.7
		c0,0,3.4-1.5,6.9-2.8c7.6-1,14.5-3.5,17.4-6.4C-438.8,387.3-443.5,384.2-453,384.2z"/>
	<g>
		<path class="st1" d="M-453.6,382.3c0-7.1-7.6-12.9-17.1-12.9c-9.4,0-17.1,5.7-17.1,12.9c0,5.7,5,10.5,11.8,12.2
			c2.8,3.3,5.4,7.5,5.4,7.5s2.6-4.2,5.5-7.6C-458.4,392.7-453.6,387.9-453.6,382.3z"/>
	</g>
	<path class="st2" d="M-469.6,389.8v3.3h-2v-3.2c-2-0.1-3-0.5-3.9-1l0.7-2.7c1,0.5,2.3,1,3.8,1c1.3,0,2.2-0.5,2.2-1.4
		c0-0.9-0.7-1.4-2.5-2c-2.5-0.8-4.2-2-4.2-4.2c0-2,1.8-3.6,3.8-4.1v-2.7h2v2.6c2,0,2.7,0.4,3.5,0.8l-0.6,2.6
		c-0.6-0.3-1.6-0.8-3.3-0.8c-1.5,0-2,0.7-2,1.3c0,0.7,0.8,1.2,2.8,2c2.7,1,3.7,2.2,3.7,4.3C-465.4,387.6-467.6,389.3-469.6,389.8z"
		/>
</g>
</svg>
