<?xml version="1.0" encoding="iso-8859-1"?>
<!-- Generator: Adobe Illustrator 19.1.1, SVG Export Plug-In . SVG Version: 6.00 Build 0)  -->
<!DOCTYPE svg PUBLIC "-//W3C//DTD SVG 1.0//EN" "http://www.w3.org/TR/2001/REC-SVG-20010904/DTD/svg10.dtd">
<svg version="1.0" id="Layer_1" xmlns="http://www.w3.org/2000/svg" xmlns:xlink="http://www.w3.org/1999/xlink" x="0px" y="0px"
	 width="47px" height="35px" viewBox="-488 367 47 35" style="enable-background:new -488 367 47 35;" xml:space="preserve">
<style type="text/css">
	.st0{opacity:0.4;fill:#333333;enable-background:new    ;}
	.st1{fill:#FF920A;}
	.st2{fill:#FFFFFF;}
</style>
<g>
	<path class="st0" d="M-453,384.2c-9.5,0-20.4,3.1-24.1,6.8c-2.9,3-1,5.5,4.8,6.5c0.8,1.3,1.2,2.8,1.2,2.8l0.4,1.7l3.8-1.7
		c0,0,3.4-1.5,6.9-2.8c7.6-1,14.5-3.5,17.4-6.4C-438.8,387.3-443.5,384.2-453,384.2z"/>
	<g>
		<path class="st1" d="M-453.6,382.3c0-7.1-7.6-12.9-17.1-12.9s-17.1,5.7-17.1,12.9c0,5.7,5,10.5,11.8,12.2c2.8,3.3,5.4,7.5,5.4,7.5
			s2.6-4.2,5.5-7.6C-458.4,392.7-453.6,387.9-453.6,382.3z"/>
	</g>
	<g>
		<path class="st2" d="M-468.3,390.2l-1.8-10.2c0.6-0.7-0.3-0.6-0.3-0.6c-0.4,0-0.4-0.1-0.4-0.1c-1-1.2-2.3-1-2.8-0.9v-0.3
			c0,0,0.4,0,0.2-0.6c0,0,0-0.5-0.5-0.5c0,0-0.5,0-0.2,0.8c0,0,0,0.3,0.3,0.3v0.3c-0.5,0-1.7,0.3-2.2,1.6c0,0,0.1,0.1-0.4,0.2
			c0,0-0.9,0.2-0.1,0.7l1.9,10.2c0,0-0.7,0.8,0.3,1h0.1c0.1,0,0.2,0,0.3,0c0.2,0,0.4,0,0.6,0c0.3,0,0.6,0,0.9-0.1
			c0.4,0,0.8-0.1,1.2-0.1c0.4-0.1,0.7-0.1,1.1-0.2c0.3-0.1,0.6-0.1,0.9-0.2c0.2-0.1,0.4-0.1,0.6-0.2c0.1,0,0.2-0.1,0.3-0.1
			c0,0,0.1,0,0.1-0.1l0,0C-467.3,390.7-468.3,390.2-468.3,390.2z M-473.9,386.8c-0.4-2-0.1-3.9,0.8-4.1c0.9-0.2,1.9,1.2,2.4,3.3
			c0.4,2,0.1,3.9-0.8,4.1C-472.3,390.3-473.4,388.8-473.9,386.8z"/>
		<path class="st2" d="M-470.9,376.6h0.1l6.2-3.2c0.1-0.1,0.2-0.2,0.1-0.3s-0.2-0.2-0.3-0.1l-6.2,3.1c-0.1,0.1-0.2,0.2-0.1,0.3
			C-471.1,376.6-471,376.6-470.9,376.6z"/>
		<path class="st2" d="M-463.1,375.6l-4.5,0.5c-0.1,0-0.2,0.1-0.2,0.3c0,0.1,0.1,0.2,0.3,0.2l0,0l4.5-0.5c0.1,0,0.2-0.1,0.2-0.3
			C-462.8,375.7-463,375.6-463.1,375.6z"/>
		<path class="st2" d="M-464.2,378.4l-6.4-1.2c-0.1,0-0.3,0.1-0.3,0.2s0.1,0.3,0.2,0.3l6.4,1.2l0,0c0.1,0,0.2-0.1,0.3-0.2
			C-464,378.6-464.1,378.5-464.2,378.4z"/>
	</g>
</g>
</svg>
