<?xml version="1.0" encoding="iso-8859-1"?>
<!-- Generator: Adobe Illustrator 19.1.1, SVG Export Plug-In . SVG Version: 6.00 Build 0)  -->
<!DOCTYPE svg PUBLIC "-//W3C//DTD SVG 1.0//EN" "http://www.w3.org/TR/2001/REC-SVG-20010904/DTD/svg10.dtd">
<svg version="1.0" id="Layer_1" xmlns="http://www.w3.org/2000/svg" xmlns:xlink="http://www.w3.org/1999/xlink" x="0px" y="0px"
	 width="47px" height="35px" viewBox="-488 367 47 35" style="enable-background:new -488 367 47 35;" xml:space="preserve">
<style type="text/css">
	.st0{opacity:0.4;fill:#333333;enable-background:new    ;}
	.st1{fill:#752100;}
	.st2{fill:#FFFFFF;}
</style>
<g>
	<path class="st0" d="M-453,384.2c-9.5,0-20.4,3.1-24.1,6.8c-2.9,3-0.9,5.5,4.8,6.5c0.8,1.3,1.2,2.8,1.2,2.8l0.4,1.7l3.8-1.7
		c0,0,3.4-1.5,6.9-2.8c7.6-1,14.5-3.5,17.4-6.4C-438.8,387.3-443.5,384.2-453,384.2z"/>
	<g>
		<path class="st1" d="M-453.7,382.3c0-7.1-7.6-12.9-17.1-12.9s-17,5.7-17,12.9c0,5.7,5,10.5,11.8,12.2c2.8,3.3,5.4,7.5,5.4,7.5
			s2.6-4.2,5.5-7.6C-458.5,392.7-453.7,387.9-453.7,382.3z"/>
	</g>
	<path class="st2" d="M-463.5,376.7c-1.1-1.5-3.5-2.1-4.8-2.4h-0.1c-0.1,0-0.1,0-0.2,0s-0.1,0-0.2,0h-0.1c-1.3-0.2-3.8-0.5-5.4,0.5
		c-0.3,0.2-3.6,2.1-4.5,6.6c0,0-0.9,4.4-1,5.8c-0.1,0.6-0.1,1.9,1.4,1.9c0.8,0,1.4-0.1,1.9-2.6l4.7,0.9l1.2,0.2l4.7,0.9
		c1.1,2.7,3,1,3.2,0.4c0.4-1.4,0.9-4.4,0.9-4.4C-460.9,379.9-463.3,376.9-463.5,376.7z M-476.6,381.6l0.1-1.7l4.9,4.7l-0.1,1.7
		L-476.6,381.6z M-463.9,385.3c-0.2,0.9-1.3,1.5-2.5,1.2c-1.2-0.2-2.1-1.1-1.9-2.1c0.2-0.9,1.3-1.5,2.5-1.2
		C-464.6,383.5-463.7,384.4-463.9,385.3z M-469,379.4l-1.2-0.2l-5.8-1.1c1.2-2.4,2.9-3,2.9-3c1.1-0.3,2.9,0,4.2,0.2
		c1.3,0.3,3,0.7,3.9,1.3c0,0,1.4,1.1,1.7,3.8L-469,379.4z"/>
</g>
</svg>
