<?xml version="1.0" encoding="iso-8859-1"?>
<!-- Generator: Adobe Illustrator 19.1.1, SVG Export Plug-In . SVG Version: 6.00 Build 0)  -->
<!DOCTYPE svg PUBLIC "-//W3C//DTD SVG 1.0//EN" "http://www.w3.org/TR/2001/REC-SVG-20010904/DTD/svg10.dtd">
<svg version="1.0" id="Layer_1" xmlns="http://www.w3.org/2000/svg" xmlns:xlink="http://www.w3.org/1999/xlink" x="0px" y="0px"
	 width="47px" height="35px" viewBox="-488 367 47 35" style="enable-background:new -488 367 47 35;" xml:space="preserve">
<style type="text/css">
	.st0{opacity:0.4;fill:#333333;enable-background:new    ;}
	.st1{fill:#00BCD4;}
	.st2{fill:#FFFFFF;}
</style>
<g>
	<path class="st0" d="M-453,384.2c-9.5,0-20.4,3.1-24.1,6.8c-2.9,3-0.9,5.5,4.9,6.5c0.8,1.3,1.2,2.8,1.2,2.8l0.4,1.7l3.8-1.7
		c0,0,3.4-1.5,6.9-2.8c7.6-1,14.5-3.5,17.4-6.4C-438.7,387.3-443.4,384.2-453,384.2z"/>
	<g>
		<path class="st1" d="M-453.7,382.3c0-7.1-7.6-12.9-17.1-12.9s-17,5.7-17,12.9c0,5.7,5,10.5,11.8,12.2c2.8,3.3,5.4,7.5,5.4,7.5
			s2.6-4.2,5.5-7.6C-458.5,392.7-453.7,387.9-453.7,382.3z"/>
	</g>
	<path class="st2" d="M-460.6,377l-0.2-0.7h-7.2l-0.3,0.4h-2.8l-0.2-0.4h-7c-0.8,0.3-0.9,1.8-0.9,1.8c-0.3,1.4,0.9,2,0.9,2
		c1.2,0.9,0.3,2.2,0.3,2.2l-2.3,4.2c-0.8,1.1-0.4,1.4-0.4,1.4c1.5,1.7,4.6,1.2,4.6,1.2c1.3,0,1.4-0.8,1.4-0.8l2-4.6
		c0.3-0.5,0.7-0.3,0.7-0.3c0.5,1.2,3.4,0.8,3.4,0.8c2.5,0,2-3.1,2-3.1l0.4-0.4h5.7v-1.9C-459.4,377.7-460.6,377-460.6,377z
		 M-468.9,383.4c0,0-2.5,0.4-3-1.1c0,0-0.2-0.8,0.6-1.3c0,0,0.3,1.6,1.5,1.5c0,0-0.7-0.9-0.4-1.6c0,0-0.2-0.3,1-0.3
		c0,0,2-0.2,1.8,1.4C-467.4,382-467.3,383.4-468.9,383.4z"/>
</g>
</svg>
