<?xml version="1.0" encoding="utf-8"?>
<!-- Generator: Adobe Illustrator 19.2.1, SVG Export Plug-In . SVG Version: 6.00 Build 0)  -->
<svg version="1.1" id="Layer_1" xmlns="http://www.w3.org/2000/svg" xmlns:xlink="http://www.w3.org/1999/xlink" x="0px" y="0px"
	 width="47px" height="35px" viewBox="0 0 47 35" style="enable-background:new 0 0 47 35;" xml:space="preserve">
<style type="text/css">
	.st0{opacity:0.4;fill:#333333;enable-background:new    ;}
	.st1{fill:#9E005D;}
	.st2{enable-background:new    ;}
	.st3{fill:#FFFFFF;}
	.st4{fill:#39B54A;}
</style>
<g>
	<g>
		<path class="st0" d="M35,17c-9.5,0-20.4,3.1-24.1,6.8c-2.9,3-0.9,5.5,4.8,6.5c0.8,1.3,1.2,2.8,1.2,2.8l0.4,1.7l3.8-1.7
			c0,0,3.4-1.5,6.9-2.8c7.6-1,14.5-3.5,17.4-6.4C49.2,20.1,44.5,17,35,17z"/>
		<g>
			<path class="st1" d="M34.4,15.1c0-7.1-7.6-12.9-17.1-12.9C7.9,2.2,0.2,7.9,0.2,15.1c0,5.7,5,10.5,11.8,12.2
				c2.8,3.3,5.4,7.5,5.4,7.5s2.6-4.2,5.5-7.6C29.5,25.5,34.4,20.7,34.4,15.1z"/>
		</g>
	</g>
	<g class="st2">
		<path class="st3" d="M20.6,10.3c-0.3-0.4-0.7-0.8-1.2-1c-0.5-0.2-1-0.3-1.6-0.3c-0.3,0-0.7,0-1,0.1s-0.6,0.2-0.8,0.4
			c-0.3,0.2-0.5,0.4-0.6,0.7c-0.2,0.3-0.2,0.6-0.2,0.9c0,0.5,0.2,1,0.6,1.3c0.4,0.3,0.9,0.5,1.4,0.8c0.6,0.2,1.2,0.4,1.9,0.6
			c0.7,0.2,1.3,0.5,1.9,0.8c0.6,0.4,1,0.8,1.4,1.4c0.4,0.6,0.6,1.3,0.6,2.3c0,0.9-0.2,1.6-0.5,2.3c-0.3,0.6-0.8,1.2-1.3,1.6
			c-0.5,0.4-1.2,0.7-1.9,1c-0.7,0.2-1.5,0.3-2.3,0.3c-1,0-2-0.2-2.9-0.5c-0.9-0.3-1.7-0.9-2.4-1.7l2.2-2.1c0.4,0.5,0.8,0.9,1.4,1.2
			c0.6,0.3,1.2,0.4,1.8,0.4c0.3,0,0.7,0,1-0.1c0.3-0.1,0.6-0.2,0.9-0.4c0.3-0.2,0.5-0.4,0.7-0.7c0.2-0.3,0.3-0.6,0.3-1
			c0-0.6-0.2-1.1-0.6-1.4c-0.4-0.3-0.9-0.6-1.4-0.8c-0.6-0.2-1.2-0.4-1.9-0.6c-0.7-0.2-1.3-0.5-1.9-0.8c-0.6-0.3-1-0.8-1.4-1.4
			c-0.4-0.6-0.6-1.3-0.6-2.3c0-0.8,0.2-1.6,0.5-2.2c0.3-0.6,0.8-1.1,1.3-1.5c0.6-0.4,1.2-0.7,1.9-0.9s1.4-0.3,2.2-0.3
			c0.9,0,1.7,0.1,2.5,0.4c0.8,0.3,1.5,0.7,2.2,1.3L20.6,10.3z"/>
	</g>
	<path class="st4" d="M38.8,2.1c-2.5-2.5-6.4-2.5-8.9,0c-2.4,2.5-2.4,6.4,0,8.9s6.4,2.5,8.9,0C41.2,8.5,41.2,4.6,38.8,2.1z"/>
</g>
</svg>
