<?xml version="1.0" encoding="utf-8"?>
<!-- Generator: Adobe Illustrator 19.2.1, SVG Export Plug-In . SVG Version: 6.00 Build 0)  -->
<svg version="1.1" id="Layer_1" xmlns="http://www.w3.org/2000/svg" xmlns:xlink="http://www.w3.org/1999/xlink" x="0px" y="0px"
	 width="47px" height="35px" viewBox="0 0 47 35" style="enable-background:new 0 0 47 35;" xml:space="preserve">
<style type="text/css">
	.st0{opacity:0.4;fill:#333333;enable-background:new    ;}
	.st1{fill:#9E005D;}
	.st2{fill:#FFFFFF;}
</style>
<g>
	<g>
		<path class="st0" d="M35,17.2c-9.5,0-20.4,3.1-24.1,6.8c-2.9,3-0.9,5.5,4.8,6.5c0.8,1.3,1.2,2.8,1.2,2.8l0.4,1.7l3.8-1.7
			c0,0,3.4-1.5,6.9-2.8c7.6-1,14.5-3.5,17.4-6.4C49.2,20.3,44.5,17.2,35,17.2z"/>
		<g>
			<path class="st1" d="M34.4,15.3c0-7.1-7.6-12.9-17.1-12.9C7.9,2.4,0.2,8.1,0.2,15.3c0,5.7,5,10.5,11.8,12.2
				c2.8,3.3,5.4,7.5,5.4,7.5s2.6-4.2,5.5-7.6C29.5,25.7,34.4,20.9,34.4,15.3z"/>
		</g>
	</g>
	<path class="st2" d="M24.1,18.8c0-1.4-0.4-2.4-1.3-3.2c-0.7-0.7-1.8-1.2-3.2-1.5l-2.9-0.8c-1.1-0.3-1.8-0.5-2.2-0.7
		c-0.6-0.3-0.9-0.8-0.9-1.4c0-1.4,1-2.3,3-2.3c2.2,0,3.3,1,3.4,2.4h3.4c0-1.4-0.7-2.9-2.1-4C20.1,6.4,18.6,6,16.8,6
		s-3.3,0.5-4.6,1.3c-1.3,0.9-2,2.3-2,4.1c0,1.7,0.6,2.9,1.7,3.7c0.4,0.3,0.9,0.5,1.5,0.7c0.6,0.3,1.4,0.5,2.2,0.6l1.8,0.4
		c2,0.5,3,1.1,3,2.1c0,1.5-1.2,2.2-3.5,2.2c-1.4,0-2.4-0.4-3-1.1c-0.3-0.4-0.6-0.4-0.7-1.8H9.8c0,1.4,0.8,3.4,2.2,4.4
		c1.3,0.9,2.9,1.4,5,1.4c1.8,0,3.3-0.4,4.7-1.3C23.4,21.9,24.1,20.5,24.1,18.8"/>
</g>
</svg>
