<?xml version="1.0" encoding="iso-8859-1"?>
<!-- Generator: Adobe Illustrator 19.1.1, SVG Export Plug-In . SVG Version: 6.00 Build 0)  -->
<!DOCTYPE svg PUBLIC "-//W3C//DTD SVG 1.0//EN" "http://www.w3.org/TR/2001/REC-SVG-20010904/DTD/svg10.dtd">
<svg version="1.0" id="Layer_1" xmlns="http://www.w3.org/2000/svg" xmlns:xlink="http://www.w3.org/1999/xlink" x="0px" y="0px"
	 width="47px" height="35px" viewBox="-488 367 47 35" style="enable-background:new -488 367 47 35;" xml:space="preserve">
<style type="text/css">
	.st0{opacity:0.4;fill:#333333;enable-background:new    ;}
	.st1{fill:#A81E2C;}
	.st2{fill:#FFFFFF;}
</style>
<g>
	<path class="st0" d="M-453,384.2c-9.5,0-20.4,3.1-24.1,6.8c-2.9,3-1,5.5,4.8,6.5c0.8,1.3,1.2,2.8,1.2,2.8l0.4,1.7l3.8-1.7
		c0,0,3.4-1.5,6.9-2.8c7.6-1,14.5-3.5,17.4-6.4C-438.8,387.3-443.5,384.2-453,384.2z"/>
	<g>
		<path class="st1" d="M-453.6,382.3c0-7.1-7.6-12.9-17.1-12.9c-9.4,0-17,5.7-17,12.9c0,5.7,4.9,10.5,11.7,12.2
			c2.8,3.3,5.4,7.5,5.4,7.5s2.6-4.2,5.5-7.6C-458.4,392.7-453.6,387.9-453.6,382.3z"/>
	</g>
	<path class="st2" d="M-468.8,379.1l1.8-3.5c0.3-0.6,1-0.9,1.6-0.6h0.1c0.6,0.3,0.8,1,0.6,1.6l-1.8,3.5c-0.3,0.6-1,0.8-1.6,0.6h-0.1
		C-468.9,380.4-469.1,379.7-468.8,379.1z M-463,378.1L-463,378.1c-0.7-0.3-1.4-0.1-1.7,0.5l-1.4,2.7c-0.3,0.6,0,1.3,0.6,1.6h0.1
		c0.6,0.3,1.3,0,1.6-0.6l1.4-2.7C-462.2,379.1-462.4,378.3-463,378.1z M-467,381.9c0,0-3.2,0.1-2.9-2.2h-3.3c0,0-0.6-0.2-1-0.8h3
		c0.7,0,1.4-0.6,1.3-1.3v-0.1c0-0.7-0.6-1.3-1.4-1.3h-3.5l0,0l0,0c0,0-1.6-0.2-2.3,1.6l-1.4,4.7c0,0-0.4,1.4,0.6,2.3l1.2,1.1
		c0,0,0.7,0.7,0.7,2v3h9.2v-1.6c0,0,0-0.7,0.5-1.1c0,0,0.4-0.1,1.1-2l0.9-2.4C-464,383.7-466.9,384.7-467,381.9z M-471.2,374.5
		c0.3-0.6,0-1.3-0.6-1.6h-0.1c-0.6-0.3-1.3,0-1.6,0.6l-1,2h2.7L-471.2,374.5z M-468.9,377v0.5l1.4-2.8c0.3-0.6,0-1.3-0.6-1.6h-0.1
		c-0.6-0.3-1.3,0-1.6,0.6l-0.9,1.8h0.1C-469.7,375.4-468.9,376.2-468.9,377z"/>
</g>
</svg>
