<?xml version="1.0" encoding="iso-8859-1"?>
<!-- Generator: Adobe Illustrator 19.1.1, SVG Export Plug-In . SVG Version: 6.00 Build 0)  -->
<!DOCTYPE svg PUBLIC "-//W3C//DTD SVG 1.0//EN" "http://www.w3.org/TR/2001/REC-SVG-20010904/DTD/svg10.dtd">
<svg version="1.0" id="Layer_1" xmlns="http://www.w3.org/2000/svg" xmlns:xlink="http://www.w3.org/1999/xlink" x="0px" y="0px"
	 width="47px" height="35px" viewBox="-488 367 47 35" style="enable-background:new -488 367 47 35;" xml:space="preserve">
<style type="text/css">
	.st0{opacity:0.4;fill:#333333;enable-background:new    ;}
	.st1{fill:#1F81E5;}
	.st2{fill:#FFFFFF;}
</style>
<g>
	<path class="st0" d="M-453,384.2c-9.5,0-20.4,3.1-24.1,6.8c-2.9,2.9-0.9,5.4,4.9,6.4c0.8,1.3,1.2,2.8,1.2,2.8l0.4,1.7l3.8-1.7
		c0,0,3.4-1.5,6.9-2.8c7.6-1,14.5-3.5,17.4-6.4C-438.8,387.3-443.5,384.2-453,384.2z"/>
	<g>
		<path class="st1" d="M-453.6,382.3c0-7.1-7.6-12.9-17.1-12.9c-9.4,0-17,5.7-17,12.9c0,5.7,4.9,10.6,11.8,12.3
			c2.8,3.3,5.4,7.5,5.4,7.5s2.6-4.2,5.5-7.6C-458.4,392.7-453.6,387.9-453.6,382.3z"/>
	</g>
	<g>
		<path class="st2" d="M-481,383.1c0.7,0.8,1.4,1.5,2.1,2.3c0.9,1,1.8,2,2.8,3c0.8,0.9,2.1,1,3,0.2c0.2-0.2,0.4-0.4,0.5-0.6
			c0-0.1,0-0.1,0.1-0.2c0.1-0.2,0.1-0.5,0.2-0.7c-0.1-0.1,0-0.1,0-0.2c0-0.6-0.2-1.1-0.6-1.5c-0.8-0.9-1.6-1.7-2.4-2.6
			c-0.8-0.9-1.6-1.8-2.5-2.6c-0.9-0.9-2.3-1-3.2,0C-481.8,381-481.8,382.3-481,383.1z M-480.7,381.5c0-0.2,0.1-0.4,0.3-0.6
			c0.6-0.7,1.6-0.7,2.2,0c0.7,0.7,1.3,1.4,1.9,2.1c0.1,0.1,0.1,0.1,0,0.2c-0.6,0.6-1.3,1.2-1.9,1.8c-0.1,0.1-0.1,0.1-0.2,0
			c-0.6-0.7-1.3-1.4-1.9-2.1C-480.7,382.5-480.9,382-480.7,381.5z"/>
		<path class="st2" d="M-468,383.9c0-0.2,0.1-0.4,0.2-0.5l0.1-0.1c0.7-0.8,1.3-1.5,2-2.3c1.6-1.8,3.1-3.6,4.7-5.4
			c0.1-0.1,0.1-0.2,0.2-0.2l0,0c0,0,0,0-0.1,0c-5,0-9.9,0-14.9,0h-0.1c0,0,0,0,0,0.1c1,1.1,1.9,2.2,2.9,3.3c1.3,1.4,2.5,2.9,3.8,4.3
			c0.1,0.1,0.2,0.2,0.3,0.3s0.1,0.3,0.2,0.4c0,0.1,0,0.2,0,0.3c0,0.4,0,0.9,0,1.3c0,1.2,0,2.4,0,3.7c0,0.1,0,0.2,0,0.3
			s-0.1,0.2-0.2,0.3c-0.1,0-0.1,0-0.2,0.1c-0.2,0.1-0.5,0.1-0.7,0.1c-0.3,0.1-0.7,0.1-1,0.2c-0.4,0.1-0.8,0.1-1.2,0.2
			c-0.2,0-0.4,0.1-0.6,0.1l0,0c0,0.1,0,0.2,0,0.3c2.9,0,5.9,0,8.8,0l0,0c0-0.1,0-0.2,0-0.3l0,0c-0.1,0-0.2,0-0.3,0
			c-0.5-0.1-1-0.2-1.5-0.2c-0.5-0.1-1.1-0.2-1.6-0.3c-0.1,0-0.2,0-0.3-0.1c-0.1,0-0.2-0.1-0.2-0.3c0-0.1,0-0.2,0-0.3
			c0-1.5,0-3.1,0-4.6C-468.1,384.3-468.1,384.1-468,383.9z M-473.2,377.4c-0.1,0-0.1,0-0.1-0.1c-0.3-0.4-0.7-0.8-1-1.2
			c0,0,0,0-0.1-0.1c4,0,8.1,0,12.1,0l0,0c-0.4,0.4-0.7,0.9-1.1,1.3c0,0,0,0-0.1,0c0,0,0,0-0.1,0C-466.8,377.4-470,377.4-473.2,377.4
			z"/>
	</g>
</g>
</svg>
