<?xml version="1.0" encoding="iso-8859-1"?>
<!-- Generator: Adobe Illustrator 19.1.1, SVG Export Plug-In . SVG Version: 6.00 Build 0)  -->
<!DOCTYPE svg PUBLIC "-//W3C//DTD SVG 1.0//EN" "http://www.w3.org/TR/2001/REC-SVG-20010904/DTD/svg10.dtd">
<svg version="1.0" id="Layer_1" xmlns="http://www.w3.org/2000/svg" xmlns:xlink="http://www.w3.org/1999/xlink" x="0px" y="0px"
	 width="47px" height="35px" viewBox="-488 367 47 35" style="enable-background:new -488 367 47 35;" xml:space="preserve">
<style type="text/css">
	.st0{opacity:0.4;fill:#333333;enable-background:new    ;}
	.st1{fill:#036163;}
	.st2{fill:#FFFFFF;}
</style>
<g>
	<path class="st0" d="M-452.9,384.2c-9.5,0-20.4,3.1-24.1,6.8c-3,3-1,5.5,4.8,6.5c0.8,1.3,1.2,2.8,1.2,2.8l0.4,1.7l3.8-1.7
		c0,0,3.4-1.5,6.9-2.8c7.6-1,14.5-3.5,17.4-6.4C-438.7,387.3-443.4,384.2-452.9,384.2z"/>
	<g>
		<path class="st1" d="M-453.7,382.3c0-7.1-7.6-12.9-17.1-12.9c-9.4,0-17,5.7-17,12.9c0,5.7,4.9,10.5,11.8,12.2
			c2.8,3.3,5.4,7.5,5.4,7.5s2.6-4.2,5.5-7.6C-458.5,392.7-453.7,387.9-453.7,382.3z"/>
	</g>
	<g>
		<path class="st2" d="M-467.3,373.2c-1-0.9-2.7-1-3.6-1c0,0,0,0-0.1,0h-0.1h-0.1h-0.1c-0.9,0-2.7,0.2-3.6,1
			c-0.2,0.2-2.2,1.9-2.2,5.1c0,0,0,3.1,0.1,4.2c0,0.4,0.2,1.3,1.2,1.2c0.6-0.1,1-0.3,1-2h3.3h0.9h3.3c0,1.8,0.4,2,1,2
			c1,0.1,1.2-0.7,1.2-1.2c0.1-1,0.1-4.2,0.1-4.2C-465,375.1-467.1,373.3-467.3,373.2z M-474.2,380.5c-1,0-1.9-0.6-1.9-1.4
			c0-0.8,0.8-1.4,1.9-1.4c1,0,1.9,0.6,1.9,1.4C-472.3,379.9-473.2,380.5-474.2,380.5z M-471.5,375.7h-4.1c0.5-1.8,1.6-2.4,1.6-2.4
			c0.7-0.3,2-0.4,2.9-0.4s2.2,0.1,2.9,0.4c0,0,1.1,0.6,1.6,2.4h-4.1C-470.7,375.7-471.5,375.7-471.5,375.7z M-468,380.5
			c-1,0-1.9-0.6-1.9-1.4c0-0.8,0.8-1.4,1.9-1.4c1,0,1.9,0.6,1.9,1.4C-466.1,379.9-466.9,380.5-468,380.5z"/>
		<g>
			<path class="st2" d="M-465,392c-0.1,0-0.2,0-0.3-0.1c-0.6-0.6-1.3-1.3-1.2-2.1c0.1-0.6,0.5-1,1.3-1.4c0.1-0.1,0.3-0.1,0.4-0.2
				c0.4-0.2,0.9-0.3,1.1-0.6c0.4-0.5-0.4-0.9-0.8-1.1c-0.5-0.3-1.1-0.5-1.5-1c-0.2-0.2-0.9-1-0.4-1.3c0.2-0.1,0.3,0.3,0.3,0.4
				c0.3,0.8,1.1,1,1.8,1.4c0.5,0.2,1.5,0.6,1.5,1.3c0.1,0.9-1,1.5-1.7,1.8c-0.1,0.1-0.3,0.1-0.4,0.2c-0.5,0.2-0.7,0.5-0.8,0.7
				c0,0.2,0.1,0.5,0.9,1.2c0.2,0.2,0.2,0.5,0,0.7C-464.7,391.9-464.8,392-465,392z"/>
		</g>
		<g>
			<path class="st2" d="M-474.8,392c-0.1,0-0.2,0-0.3-0.1c-0.6-0.6-1.3-1.3-1.2-2.1c0.1-0.6,0.5-1,1.3-1.4c0.1-0.1,0.3-0.1,0.4-0.2
				c0.4-0.2,0.9-0.3,1.1-0.6c0.4-0.5-0.4-0.9-0.8-1.1c-0.5-0.3-1.1-0.5-1.5-1c-0.2-0.2-0.9-1-0.4-1.3c0.2-0.1,0.3,0.3,0.3,0.4
				c0.3,0.8,1.1,1,1.8,1.4c0.5,0.2,1.5,0.6,1.5,1.3c0.1,0.9-1,1.5-1.7,1.8c-0.1,0.1-0.3,0.1-0.4,0.2c-0.5,0.2-0.7,0.5-0.8,0.7
				c0,0.2,0.1,0.5,0.9,1.2c0.2,0.2,0.2,0.5,0,0.7C-474.5,391.9-474.7,392-474.8,392z"/>
		</g>
	</g>
</g>
</svg>
