<?xml version="1.0" encoding="iso-8859-1"?>
<!-- Generator: Adobe Illustrator 19.1.1, SVG Export Plug-In . SVG Version: 6.00 Build 0)  -->
<!DOCTYPE svg PUBLIC "-//W3C//DTD SVG 1.0//EN" "http://www.w3.org/TR/2001/REC-SVG-20010904/DTD/svg10.dtd">
<svg version="1.0" id="Layer_1" xmlns="http://www.w3.org/2000/svg" xmlns:xlink="http://www.w3.org/1999/xlink" x="0px" y="0px"
	 width="47px" height="35px" viewBox="-488 367 47 35" style="enable-background:new -488 367 47 35;" xml:space="preserve">
<style type="text/css">
	.st0{opacity:0.4;fill:#333333;enable-background:new    ;}
	.st1{fill:#25C827;}
	.st2{fill:#FFFFFF;}
</style>
<g>
	<path class="st0" d="M-453.1,384.2c-9.5,0-20.4,3.1-24.1,6.8c-2.9,2.9-0.9,5.4,4.9,6.4c0.8,1.3,1.2,2.8,1.2,2.8l0.4,1.7l3.8-1.7
		c0,0,3.4-1.5,6.9-2.8c7.6-1,14.5-3.5,17.4-6.4C-438.9,387.3-443.5,384.2-453.1,384.2z"/>
	<g>
		<path class="st1" d="M-453.6,382.3c0-7.1-7.6-12.9-17.1-12.9s-17,5.7-17,12.9c0,5.7,4.9,10.6,11.8,12.3c2.8,3.3,5.4,7.5,5.4,7.5
			s2.6-4.2,5.5-7.6C-458.4,392.7-453.6,387.9-453.6,382.3z"/>
	</g>
	<path class="st2" d="M-479.8,384c0-0.2,0.2-0.4,0.4-0.4h5c0.2,0,0.4,0.2,0.4,0.4s-0.2,0.4-0.4,0.4h-5
		C-479.6,384.5-479.8,384.3-479.8,384z M-479.4,386.6h8.7c0.2,0,0.4-0.2,0.4-0.4c0-0.2-0.2-0.4-0.4-0.4h-8.7c-0.2,0-0.4,0.2-0.4,0.4
		C-479.8,386.4-479.6,386.6-479.4,386.6z M-479.8,377.3h12.6c0.2-0.2,0.3-0.4,0.5-0.6c0,0,0.1-0.1,0.2-0.1h-13.3
		c-1.2,0-2.2,1-2.2,2.2v7.3c0,1.2,1,2.2,2.2,2.2h12.6c-0.3-0.2-0.5-0.4-0.8-0.7l0,0h-11.8c-0.8,0-1.5-0.7-1.5-1.5V382h13.5
		c-0.2-0.5-0.4-1.2-0.4-1.9c0-0.5,0.1-1,0.2-1.4h-13.4C-481.3,377.9-480.6,377.3-479.8,377.3z M-459.2,384.6c0,0.5-0.1,0.9-0.3,1.3
		s-0.4,0.7-0.7,1c-0.3,0.3-0.7,0.5-1.1,0.6c-0.4,0.2-0.8,0.3-1.3,0.3v2.1h-0.8v-2c-0.6,0-1.3-0.1-1.9-0.3c-0.6-0.2-1.1-0.5-1.6-1
		l1.3-1.4c0.2,0.3,0.5,0.6,0.9,0.8c0.4,0.2,0.8,0.3,1.2,0.3v-3.1h-0.1c-0.4-0.1-0.8-0.2-1.2-0.4c-0.4-0.1-0.7-0.3-1-0.6
		c-0.3-0.2-0.5-0.5-0.7-0.8c-0.2-0.3-0.2-0.7-0.2-1.2c0-0.4,0.1-0.8,0.3-1.2c0.2-0.4,0.4-0.7,0.7-0.9c0.3-0.3,0.6-0.5,1-0.6
		c0.4-0.2,0.8-0.3,1.2-0.3v-2h0.8v2h0.1c0.5,0,1,0.1,1.5,0.3s1,0.4,1.3,0.8l-1.2,1.4c-0.2-0.2-0.5-0.4-0.8-0.6
		c-0.3-0.1-0.6-0.2-1-0.2v2.9h0.1c0.4,0.1,0.8,0.2,1.2,0.4c0.4,0.1,0.7,0.3,1.1,0.5c0.3,0.2,0.6,0.5,0.7,0.8
		C-459.3,383.7-459.2,384.1-459.2,384.6z M-463.3,378.7c-0.3,0.1-0.6,0.2-0.9,0.4c-0.3,0.2-0.4,0.5-0.4,0.9c0,0.2,0,0.4,0.1,0.5
		s0.2,0.3,0.3,0.4c0.1,0.1,0.3,0.2,0.4,0.2c0.2,0.1,0.3,0.1,0.5,0.2V378.7z M-461,384.7c0-0.2,0-0.4-0.1-0.5
		c-0.1-0.1-0.2-0.3-0.4-0.4c-0.1-0.1-0.3-0.2-0.5-0.2c-0.2-0.1-0.4-0.1-0.5-0.2v2.9c0.2,0,0.4-0.1,0.6-0.2c0.2-0.1,0.3-0.2,0.5-0.3
		c0.1-0.1,0.2-0.3,0.3-0.4C-461.1,385.2-461,385-461,384.7z"/>
</g>
</svg>
