<?xml version="1.0" encoding="utf-8"?>
<!-- Generator: Adobe Illustrator 19.2.1, SVG Export Plug-In . SVG Version: 6.00 Build 0)  -->
<svg version="1.1" id="Layer_1" xmlns="http://www.w3.org/2000/svg" xmlns:xlink="http://www.w3.org/1999/xlink" x="0px" y="0px"
	 width="47px" height="35px" viewBox="0 0 47 35" style="enable-background:new 0 0 47 35;" xml:space="preserve">
<style type="text/css">
	.st0{opacity:0.4;fill:#333333;enable-background:new    ;}
	.st1{fill:#808080;}
	.st2{fill:#FFFFFF;}
</style>
<g>
	<path class="st0" d="M35,17.2c-9.5,0-20.4,3.1-24.1,6.8c-2.9,3-1,5.5,4.8,6.5c0.8,1.3,1.2,2.8,1.2,2.8l0.4,1.7l3.8-1.7
		c0,0,3.4-1.5,6.9-2.8c7.6-1,14.5-3.5,17.4-6.4C49.2,20.3,44.5,17.2,35,17.2z"/>
	<g>
		<path class="st1" d="M34.4,15.3c0-7.1-7.6-12.9-17.1-12.9s-17,5.7-17,12.9C0.3,21,5.2,25.8,12,27.5c2.8,3.3,5.4,7.5,5.4,7.5
			s2.6-4.2,5.5-7.6C29.6,25.7,34.4,20.9,34.4,15.3z"/>
	</g>
	<circle class="st2" cx="17.4" cy="15.3" r="9.5"/>
	<g>
		<path class="st1" d="M12.6,9.9H15v4h4.6v-4H22v10.8h-2.4V16H15v4.7h-2.4V9.9z"/>
	</g>
</g>
</svg>
