<?xml version="1.0" encoding="iso-8859-1"?>
<!-- Generator: Adobe Illustrator 19.1.1, SVG Export Plug-In . SVG Version: 6.00 Build 0)  -->
<!DOCTYPE svg PUBLIC "-//W3C//DTD SVG 1.0//EN" "http://www.w3.org/TR/2001/REC-SVG-20010904/DTD/svg10.dtd">
<svg version="1.0" id="Layer_1" xmlns="http://www.w3.org/2000/svg" xmlns:xlink="http://www.w3.org/1999/xlink" x="0px" y="0px"
	 width="47px" height="35px" viewBox="-488 367 47 35" style="enable-background:new -488 367 47 35;" xml:space="preserve">
<style type="text/css">
	.st0{opacity:0.4;fill:#333333;enable-background:new    ;}
	.st1{fill:#9C27B0;}
	.st2{fill:#FFFFFF;}
</style>
<g>
	<path class="st0" d="M-453,384.2c-9.5,0-20.4,3.1-24.1,6.8c-2.9,3-0.9,5.5,4.9,6.5c0.8,1.3,1.2,2.8,1.2,2.8l0.4,1.7l3.8-1.7
		c0,0,3.4-1.5,6.9-2.8c7.6-1,14.5-3.5,17.4-6.4C-438.8,387.3-443.4,384.2-453,384.2z"/>
	<g>
		<path class="st1" d="M-453.7,382.3c0-7.1-7.6-12.9-17.1-12.9c-9.3,0-17,5.7-17,12.9c0,5.7,5,10.5,11.8,12.2
			c2.8,3.3,5.4,7.5,5.4,7.5s2.6-4.2,5.5-7.6C-458.5,392.7-453.7,387.9-453.7,382.3z"/>
	</g>
	<path class="st2" d="M-465.3,374.8c-1.4-1.2-3.9-1.4-5.2-1.5h-0.1c-0.1,0-0.1,0-0.2,0c-0.1,0-0.1,0-0.2,0h-0.1
		c-1.3,0-3.8,0.2-5.2,1.5c-0.3,0.2-3.2,2.7-3.2,7.3c0,0,0,4.5,0.1,5.9c0.1,0.6,0.3,1.8,1.8,1.6c0.8-0.1,1.4-0.4,1.4-2.9h4.7h1.2h4.7
		c0,2.6,0.6,2.8,1.4,2.9c1.5,0.2,1.7-1,1.8-1.6c0.1-1.5,0.1-5.9,0.1-5.9C-462.1,377.6-465,375-465.3,374.8z M-475.1,385.1
		c-1.2,0-2.3-0.7-2.3-1.7c0-0.9,1-1.7,2.3-1.7c1.2,0,2.2,0.7,2.2,1.7C-472.9,384.3-473.9,385.1-475.1,385.1z M-471.3,378.5h-5.9
		c0.7-2.6,2.3-3.5,2.3-3.5c1-0.5,2.9-0.6,4.1-0.6c1.3,0,3.1,0.1,4.1,0.6c0,0,1.6,0.9,2.3,3.4h-5.9h-1V378.5z M-466.3,385.1
		c-1.3,0-2.3-0.7-2.3-1.7c0-0.9,1-1.7,2.3-1.7c1.3,0,2.3,0.7,2.3,1.7C-464,384.3-465,385.1-466.3,385.1z"/>
</g>
</svg>
